# xmcd CD database file
#
# Track frame offsets:
#	183
#	14808
#	26080
#	45108
#	59240
#	78365
#	92133
#	104835
#	116528
#	135533
#	157278
#	179683
#	195033
#	209508
#	224758
#
# Disc length: 3194 seconds
#
# Revision: 0
# Processed by: cddbd v1.5.1PL2 Copyright (c) Steve Scherf et al.
# Submitted via: CDex 1.51
#
DISCID=e40c780f
DTITLE=Sidney Bechet - Rare Soprano Sax Recordings
DYEAR=1949
DGENRE=Jazz
TTITLE0=I've Found A New Baby
TTITLE1=Jungle Drums
TTITLE2=Summertime
TTITLE3=Indian Summer
TTITLE4=Sweet Sue, Just You
TTITLE5=Down In Honky Tonk Town
TTITLE6=Old Man Blues
TTITLE7=Rose Room
TTITLE8=Bechet Parades The Blues
TTITLE9=After You've Gone
TTITLE10=V-Disc Blues
TTITLE11=Ain't Misbehavin'
TTITLE12=Darktown Strutters' Ball
TTITLE13=Love For Sale
TTITLE14=Sweet Georgia Brown
EXTD=YEAR: 1949
EXTT0=
EXTT1=
EXTT2=
EXTT3=
EXTT4=
EXTT5=
EXTT6=
EXTT7=
EXTT8=
EXTT9=
EXTT10=
EXTT11=
EXTT12=
EXTT13=
EXTT14=
PLAYORDER=
